<?xml version="1.0" encoding="UTF-8"?>
<svg version="1.1" xmlns="http://www.w3.org/2000/svg" width="256" height="256">
<path d="M0 0 C0.92039063 0.80566406 1.84078125 1.61132812 2.7890625 2.44140625 C3.68882812 3.21613281 4.58859375 3.99085937 5.515625 4.7890625 C7.98439434 6.96322039 10.39150784 9.18928384 12.7890625 11.44140625 C13.44003906 12.01632813 14.09101563 12.59125 14.76171875 13.18359375 C31.11150519 28.29119929 41.42180963 50.12282828 46.7890625 71.44140625 C47.10746094 72.66859375 47.42585937 73.89578125 47.75390625 75.16015625 C51.85216657 94.0461485 51.92230178 115.75905899 46.7890625 134.44140625 C46.49902344 135.53453125 46.20898438 136.62765625 45.91015625 137.75390625 C44.96995601 141.02690459 43.91636599 144.22820786 42.7890625 147.44140625 C42.15871094 149.24738281 42.15871094 149.24738281 41.515625 151.08984375 C38.11863381 160.38072897 33.52145197 168.40174157 27.7890625 176.44140625 C27.39170898 177.00102051 26.99435547 177.56063477 26.58496094 178.13720703 C7.50688622 204.67559427 -21.66337723 223.85859995 -54.0703125 229.55859375 C-61.7326787 230.66709745 -69.33775038 230.81359051 -77.06591797 230.81201172 C-79.44441931 230.81637594 -81.82104423 230.85281384 -84.19921875 230.890625 C-98.20809522 230.99417052 -111.32139137 228.52670046 -124.3359375 223.19140625 C-125.07473145 222.89476074 -125.81352539 222.59811523 -126.57470703 222.29248047 C-158.63149013 209.09990771 -182.52295572 184.8639191 -196.59375 153.34375 C-199.2109375 146.98380135 -199.2109375 146.98380135 -199.2109375 144.44140625 C-193.64282561 144.19325591 -188.07795959 144.01233897 -182.50561523 143.89208984 C-180.61279221 143.84195098 -178.72035368 143.77381517 -176.82885742 143.68701172 C-161.11770375 142.98432923 -161.11770375 142.98432923 -156.54736328 146.47680664 C-154.75049277 149.05618528 -153.47293443 151.56829823 -152.2109375 154.44140625 C-151.37498875 155.66053033 -150.50337221 156.85657909 -149.5859375 158.015625 C-148.8021875 159.04300781 -148.0184375 160.07039062 -147.2109375 161.12890625 C-132.33561735 180.31530681 -111.24397028 191.79235119 -87.18359375 195.16015625 C-61.82862219 197.55904975 -37.33749377 189.77775252 -17.4128418 174.01928711 C0.35792961 159.24817306 10.65482424 137.02128262 13.7890625 114.44140625 C14.07006051 110.49882874 14.12389895 106.5805439 14.1015625 102.62890625 C14.09310303 101.04916016 14.09310303 101.04916016 14.08447266 99.4375 C13.9592456 91.38329279 13.21354054 84.16654919 10.7890625 76.44140625 C10.50699951 75.51569824 10.50699951 75.51569824 10.21923828 74.57128906 C3.06970494 51.67230637 -11.86337646 32.41874937 -33.16845703 21.10058594 C-55.18884762 9.95088781 -80.14268074 6.91668039 -103.9609375 14.00390625 C-110.08244118 16.1452066 -115.69342457 19.19211018 -121.33691406 22.35571289 C-122.37090332 22.92986938 -122.37090332 22.92986938 -123.42578125 23.515625 C-124.03542725 23.86197998 -124.64507324 24.20833496 -125.27319336 24.56518555 C-129.11702893 26.30331404 -133.01185329 26.56594209 -137.18481445 26.55493164 C-138.14543289 26.55485611 -139.10605133 26.55478058 -140.09577942 26.55470276 C-141.1199144 26.54954147 -142.14404938 26.54438019 -143.19921875 26.5390625 C-144.25755417 26.53764755 -145.31588959 26.5362326 -146.40629578 26.53477478 C-149.77870539 26.52918784 -153.15104804 26.51663769 -156.5234375 26.50390625 C-158.81315008 26.49888956 -161.10286371 26.49432695 -163.39257812 26.49023438 C-168.99872067 26.47922268 -174.6048243 26.46249751 -180.2109375 26.44140625 C-178.53235398 21.87278592 -176.15042253 18.76120357 -172.8359375 15.25390625 C-172.2992041 14.68365723 -171.7624707 14.1134082 -171.20947266 13.52587891 C-127.78525236 -31.82774258 -49.74259884 -41.06656416 0 0 Z " fill="#192441" transform="translate(206.2109375,25.55859375)"/>
<path d="M0 0 C12.54 0 25.08 0 38 0 C40 10 40 10 41 19 C28.46 19 15.92 19 3 19 C1 12 1 12 0 0 Z " fill="#192441" transform="translate(0,136)"/>
<path d="M0 0 C12.87 0 25.74 0 39 0 C37.86486486 10.21621622 37.86486486 10.21621622 37 14 C36.835 14.7425 36.67 15.485 36.5 16.25 C36 18 36 18 35 19 C32.26105915 19.08858646 29.5474673 19.11523479 26.80859375 19.09765625 C25.98875504 19.0962413 25.16891632 19.09482635 24.32423401 19.09336853 C21.69528618 19.08775289 19.06642227 19.07519779 16.4375 19.0625 C14.65950643 19.05748701 12.88151154 19.05292376 11.10351562 19.04882812 C6.73564455 19.03777839 2.36783652 19.02050331 -2 19 C-1.85761163 16.95809019 -1.71092972 14.91647955 -1.5625 12.875 C-1.48128906 11.73804687 -1.40007812 10.60109375 -1.31640625 9.4296875 C-1.02485329 6.26939737 -0.52175475 3.13052852 0 0 Z " fill="#192441" transform="translate(2,102)"/>
<path d="M0 0 C1.80398604 0.00079158 3.60809226 0.02904097 5.41137695 0.0793457 C6.83665459 0.08995781 6.83665459 0.08995781 8.29072571 0.1007843 C11.32783496 0.12879026 14.36310556 0.19154051 17.3996582 0.25512695 C19.4575743 0.28020179 21.51551927 0.30301638 23.57348633 0.32348633 C28.62041954 0.3786374 33.66597709 0.46495314 38.7121582 0.56762695 C38.28785522 1.61128418 38.28785522 1.61128418 37.85498047 2.67602539 C37.07798622 4.64199846 36.37469625 6.63835944 35.73925781 8.65454102 C34.15462798 12.49303041 32.81735189 14.77247071 29.7121582 17.56762695 C22.87464248 19.6301743 15.30602926 18.68584037 8.2746582 18.31762695 C6.28328172 18.25739506 4.29173126 18.20264888 2.30004883 18.15356445 C-2.56688851 18.02168245 -7.42545755 17.81491519 -12.2878418 17.56762695 C-11.52203489 15.66975766 -10.74996602 13.77441451 -9.9753418 11.88012695 C-9.33145508 10.29651367 -9.33145508 10.29651367 -8.67456055 8.6809082 C-7.98813477 7.13983398 -7.98813477 7.13983398 -7.2878418 5.56762695 C-6.9374585 4.62250244 -6.5870752 3.67737793 -6.22607422 2.70361328 C-3.91889147 0.16103338 -3.31446407 0.204056 0 0 Z " fill="#192441" transform="translate(19.287841796875,67.432373046875)"/>
</svg>
